<!-- License: MIT. Made by Ionicons: https://github.com/ionic-team/ionicons -->
<svg width="512px" height="512px" viewBox="0 0 512 512" id="Layer_1" data-name="Layer 1" xmlns="http://www.w3.org/2000/svg"><path d="M385.52,51.09C363.84,26.52,324.71,16,274.63,16H129.25a20.75,20.75,0,0,0-20.54,17.48l-60.55,382a12.43,12.43,0,0,0,10.39,14.22,12.58,12.58,0,0,0,1.94.15h89.76l22.54-142.29-.7,4.46a20.67,20.67,0,0,1,20.47-17.46h42.65c83.77,0,149.36-33.86,168.54-131.8.57-2.9,1.05-5.72,1.49-8.48h0C410.94,98.06,405.19,73.41,385.52,51.09Z" fill="#ff9800"/></svg>